{"title":"Last Vegas 2013 BRRip XviD AC3-MiLLENiUM","uid":9464052,"size":1414489969,"categoryP":"video","categoryS":"movies","magnet":"?xt=urn:btih:1242e73bb2711fc936f521b62485dfe4a8757cd1&amp;dn=Last+Vegas+2013+BRRip+XviD+AC3-MiLLENiUM&amp;tr=udp%3A%2F%2Ftracker.openbittorrent.com%3A80&amp;tr=udp%3A%2F%2Fopen.demonii.com%3A1337&amp;tr=udp%3A%2F%2Ftracker.coppersurfer.tk%3A6969&amp;tr=udp%3A%2F%2Fexodus.desync.com%3A6969","seeders":1,"leechers":0,"uploader":"NewSky005","files":3,"time":1389414078,"description":"Last Vegas 2013 BRRip XviD AC3-MiLLENiUM                  \n\nGeneral\n\nSource...............: 720p.BluRay.x264-SPARKS [THANKS]\nIMDb Information.... : http://www.imdb.com/title/tt1204975/\nSample Included......: yes\n\nGeneral\nComplete name                            : C:UsersrootDesktopLast Vegas 2013 BRRip XviD AC3-MiLLENiUMLast Vegas 2013 BRRip XviD AC3-MiLLENiUM.avi\nFormat                                   : AVI\nFormat/Info                              : Audio Video Interleave\nFile size                                : 1.31 GiB\nDuration                                 : 1h 44mn\nOverall bit rate                         : 1 783 Kbps\n\nVideo\nID                                       : 0\nFormat                                   : MPEG-4 Visual\nFormat profile                           : Advanced Simple@L5\nFormat settings, BVOP                    : 2\nFormat settings, QPel                    : No\nFormat settings, GMC                     : No warppoints\nFormat settings, Matrix                  : Default (H.263)\nCodec ID                                 : XVID\nCodec ID/Hint                            : XviD\nDuration                                 : 1h 44mn\nBit rate                                 : 1 327 Kbps\nWidth                                    : 720 pixels\nHeight                                   : 304 pixels\nDisplay aspect ratio                     : 2.35:1\nFrame rate                               : 23.976 fps\nColor space                              : YUV\nChroma subsampling                       : 4:2:0\nBit depth                                : 8 bits\nScan type                                : Progressive\nCompression mode                         : Lossy\nBits/(Pixel*Frame)                       : 0.253\nStream size                              : 997 MiB (74%)\nWriting library                          : XviD 1.2.1 (UTC 2008-12-04)\n\nAudio\nID                                       : 1\nFormat                                   : AC-3\nFormat/Info                              : Audio Coding 3\nMode extension                           : CM (complete main)\nFormat settings, Endianness              : Big\nCodec ID                                 : 2000\nDuration                                 : 1h 44mn\nBit rate mode                            : Constant\nBit rate                                 : 448 Kbps\nChannel(s)                               : 6 channels\nChannel positions                        : Front: L C R, Side: L R, LFE\nSampling rate                            : 48.0 KHz\nBit depth                                : 16 bits\nCompression mode                         : Lossy\nStream size                              : 336 MiB (25%)\nAlignment                                : Aligned on interleaves\nInterleave, duration                     : 64 ms (1.53 video frames)\nInterleave, preload duration             : 192 ms\nTitle                                    : meh\n\n\nPlot\n\nThree sixty-something friends take a break from their day-to-day lives to throw a bachelor party in Las Vegas for their last remaining single pal.\n[img]http://s13.postimg.org/e5lps1c9z/vlcsnap_2014_01_11_02h11m02s210.png[/img]\n[img]http://s13.postimg.org/v7j57vgiv/vlcsnap_2014_01_11_02h11m15s78.png[/img]\n[img]http://s13.postimg.org/lvshx6elj/vlcsnap_2014_01_11_02h11m23s169.png[/img]\n[img]http://s13.postimg.org/9me2k9js7/vlcsnap_2014_01_11_02h11m43s97.png[/img]\n[img]http://s13.postimg.org/6bl46n4h3/vlcsnap_2014_01_11_02h11m28s218.png[/img]\n","torrent":{"xt":"urn:btih:1242e73bb2711fc936f521b62485dfe4a8757cd1","amp;dn":"Last+Vegas+2013+BRRip+XviD+AC3-MiLLENiUM","amp;tr":["udp%3A%2F%2Ftracker.openbittorrent.com%3A80","udp%3A%2F%2Fopen.demonii.com%3A1337","udp%3A%2F%2Ftracker.coppersurfer.tk%3A6969","udp%3A%2F%2Fexodus.desync.com%3A6969"],"infoHash":"1242e73bb2711fc936f521b62485dfe4a8757cd1","infoHashBuffer":{"type":"Buffer","data":[18,66,231,59,178,113,31,201,54,245,33,182,36,133,223,228,168,117,124,209]},"announce":[],"urlList":[]}}